<?xml version="1.0" encoding="utf-8"?>
<!-- Generator: Adobe Illustrator 24.0.0, SVG Export Plug-In . SVG Version: 6.00 Build 0)  -->
<svg version="1.1" id="图层_1" xmlns="http://www.w3.org/2000/svg" xmlns:xlink="http://www.w3.org/1999/xlink" x="0px" y="0px"
	 viewBox="0 0 256 256" style="enable-background:new 0 0 256 256;" xml:space="preserve">
<style type="text/css">
	.st0{fill:url(#path-3-5_1_);}
	.st1{opacity:0.1;fill-rule:evenodd;clip-rule:evenodd;}
	.st2{fill-rule:evenodd;clip-rule:evenodd;fill:url(#path-7-2_1_);}
	.st3{opacity:0.2;fill-rule:evenodd;clip-rule:evenodd;fill:#00017D;enable-background:new    ;}
	.st4{fill-rule:evenodd;clip-rule:evenodd;fill:url(#矩形_1_);}
	.st5{fill:url(#path-12-2_1_);}
</style>
<linearGradient id="path-3-5_1_" gradientUnits="userSpaceOnUse" x1="-1003.8287" y1="70.6705" x2="-1003.8287" y2="71.6806" gradientTransform="matrix(216 0 0 216 216955 -15246)">
	<stop  offset="0" style="stop-color:#8C8C8C"/>
	<stop  offset="1" style="stop-color:#4D4D4D"/>
</linearGradient>
<path id="path-3-5" class="st0" d="M42,18h172c13.3,0,24,10.7,24,24v172c0,13.3-10.7,24-24,24H42c-13.3,0-24-10.7-24-24V42
	C18,28.7,28.7,18,42,18z"/>
<g>
	<path id="path-7" class="st1" d="M136.8,118.9l53.8,40.4c5.9,4.3,7.2,12.5,2.9,18.4c-0.2,0.2-0.3,0.4-0.5,0.6
		c-0.7,0.9-1.5,1.6-2.4,2.3l-53.8,40.4c-5.2,3.9-12.3,3.9-17.5,0l-53.8-40.4c-5.9-4.3-7.2-12.5-2.9-18.4c0.2-0.2,0.3-0.4,0.5-0.6
		c0.7-0.9,1.5-1.6,2.4-2.3l53.8-40.4C124.4,115,131.5,115,136.8,118.9z"/>
	
		<linearGradient id="path-7-2_1_" gradientUnits="userSpaceOnUse" x1="-1001.0809" y1="73.3518" x2="-1001.0809" y2="74.3518" gradientTransform="matrix(136 0 0 108 136275 -7814)">
		<stop  offset="0" style="stop-color:#68FFCA"/>
		<stop  offset="1" style="stop-color:#2B70FF"/>
	</linearGradient>
	<path id="path-7-2" class="st2" d="M136.8,110.9l53.8,40.4c5.9,4.3,7.2,12.5,2.9,18.4c-0.2,0.2-0.3,0.4-0.5,0.6
		c-0.7,0.9-1.5,1.6-2.4,2.3l-53.8,40.4c-5.2,3.9-12.3,3.9-17.5,0l-53.8-40.4c-5.9-4.3-7.2-12.5-2.9-18.4c0.2-0.2,0.3-0.4,0.5-0.6
		c0.7-0.9,1.5-1.6,2.4-2.3l53.8-40.4C124.4,107,131.5,107,136.8,110.9z"/>
</g>
<g>
	<path id="矩形备份-26" class="st3" d="M135.2,91.5l44.3,34.4c5,3.9,6,11.1,2.1,16.1c0,0-0.1,0.1-0.1,0.1c-0.6,0.7-1.3,1.4-2,2
		l-44.3,34.4c-4.2,3.3-10.2,3.3-14.4,0l-44.3-34.5c-5-3.9-6-11.1-2.1-16.1c0,0,0.1-0.1,0.1-0.1c0.6-0.7,1.3-1.4,2-2l44.3-34.4
		C125,88.2,131,88.2,135.2,91.5z"/>
	
		<linearGradient id="矩形_1_" gradientUnits="userSpaceOnUse" x1="-1001.0809" y1="74.3518" x2="-1001.0809" y2="73.3518" gradientTransform="matrix(136 0 0 108 136275 -7858)">
		<stop  offset="0" style="stop-color:#6D1DEC;stop-opacity:0.4"/>
		<stop  offset="0.61" style="stop-color:#AD50F8"/>
		<stop  offset="1" style="stop-color:#CF6CFF"/>
		<stop  offset="1" style="stop-color:#D06FFF"/>
	</linearGradient>
	<path id="矩形" class="st4" d="M136.8,66.9l53.8,40.4c5.9,4.3,7.2,12.5,2.9,18.4c-0.2,0.2-0.3,0.4-0.5,0.6
		c-0.7,0.9-1.5,1.6-2.4,2.3l-53.8,40.4c-5.2,3.9-12.3,3.9-17.5,0l-53.8-40.4c-5.9-4.3-7.2-12.5-2.9-18.4c0.2-0.2,0.3-0.4,0.5-0.6
		c0.7-0.9,1.5-1.6,2.4-2.3l53.8-40.4C124.4,63,131.5,63,136.8,66.9z"/>
</g>
<linearGradient id="path-12-2_1_" gradientUnits="userSpaceOnUse" x1="-993.6616" y1="74.8377" x2="-993.6616" y2="75.5677" gradientTransform="matrix(68 0 0 88 67696.9922 -6526)">
	<stop  offset="0" style="stop-color:#FEFFFF"/>
	<stop  offset="1" style="stop-color:#BCC8D3"/>
</linearGradient>
<path id="path-12-2" class="st5" d="M138,36c4.4,0,8,3.6,8,8v44h8.4c1.9,0,3.8,0.7,5.3,1.9l0.2,0.2c2.6,2.3,2.8,6.3,0.4,8.9
	c-0.2,0.3-0.5,0.5-0.7,0.7l0,0l-26.4,22.4c-3,2.5-7.4,2.5-10.4,0l0,0L96.4,99.8c-1.5-1.2-2.4-3.1-2.4-5c0-3.8,3.4-6.8,7.6-6.8h8.4
	V44c0-4.4,3.6-8,8-8H138z"/>
</svg>
